{
  "asset": {
    "generator": "Amazon Sumerian",
    "version": "2.0"
  },
  "cameras": [
    {
      "name": "Default Camera",
      "type": "perspective",
      "perspective": {
        "aspectRatio": 1,
        "yfov": 0.7853981633974483,
        "zfar": 1000,
        "znear": 1
      }
    }
  ],
  "nodes": [
    {
      "name": "Default Camera",
      "camera": 0,
      "rotation": [
        -0.07420006297552655,
        -0.028809847564403093,
        -0.002144501657969743,
        0.9968248313773002
      ],
      "scale": [
        1,
        1,
        1
      ],
      "translation": [
        -0.21382594769889685,
        0.5542419019161344,
        3.696114173585664
      ]
    },
    {
      "name": "Key - Directional",
      "extensions": {
        "KHR_lights_punctual": {
          "light": 0
        }
      },
      "rotation": [
        -0.0948595598902012,
        0.11955889871169392,
        -0.14019607206387738,
        0.9782905473396666
      ],
      "scale": [
        0.9999998569971704,
        0.9999998569971704,
        0.9999998569971704
      ],
      "translation": [
        3.840765953063965,
        5.725151062011719,
        6.723899841308594
      ]
    },
    {
      "name": "Rim - Directional",
      "extensions": {
        "KHR_lights_punctual": {
          "light": 1
        }
      },
      "rotation": [
        -0.007935453473895075,
        0.936498758480699,
        0.34801447925863915,
        0.042344139719820297
      ],
      "scale": [
        1.0000002646568553,
        1.0000002646568553,
        1.0000002646568553
      ],
      "translation": [
        4.528846740722656,
        9.009954452514648,
        -9.487277030944824
      ]
    },
    {
      "name": "Default  Dynamic Lights",
      "rotation": [
        0,
        0,
        0,
        1
      ],
      "scale": [
        1,
        1,
        1
      ],
      "translation": [
        0,
        0,
        0
      ],
      "children": [
        1,
        2
      ]
    },
    {
      "name": "lamps1 BLACK",
      "mesh": 0,
      "rotation": [
        0,
        0,
        0,
        1
      ],
      "scale": [
        0.009999999776482582,
        0.009999999776482582,
        0.009999999776482582
      ],
      "translation": [
        -5.573824882507324,
        -2.032188892364502,
        -4.405688762664795
      ]
    },
    {
      "name": "lamps1 BULB",
      "mesh": 1,
      "rotation": [
        0,
        0,
        0,
        1
      ],
      "scale": [
        0.009999999776482582,
        0.009999999776482582,
        0.009999999776482582
      ],
      "translation": [
        -5.573824882507324,
        -2.032188892364502,
        -4.405688762664795
      ]
    },
    {
      "name": "lamp_hanging.fbx",
      "rotation": [
        0,
        0,
        0,
        1
      ],
      "scale": [
        1,
        1,
        1
      ],
      "translation": [
        0,
        0,
        0
      ],
      "children": [
        4,
        5
      ]
    }
  ],
  "extensions": {
    "KHR_lights_punctual": {
      "lights": [
        {
          "name": "Key - Directional",
          "color": [
            0.92477783203125,
            0.8875688601181507,
            0.856960791015625
          ],
          "intensity": 1,
          "type": "directional"
        },
        {
          "name": "Rim - Directional",
          "color": [
            1,
            1,
            1
          ],
          "intensity": 1,
          "type": "directional"
        }
      ]
    }
  },
  "extensionsUsed": [
    "KHR_lights_punctual"
  ],
  "buffers": [
    {
      "byteLength": 54840,
      "uri": "1307f9f1a1c057a757304d4a7210566e38a1fb9e.bin"
    },
    {
      "byteLength": 27168,
      "uri": "51f6be3a1440a52dc5f4e0372d6ea653e825926d.bin"
    }
  ],
  "bufferViews": [
    {
      "buffer": 0,
      "byteOffset": 0,
      "byteLength": 2856,
      "target": 34963
    },
    {
      "buffer": 0,
      "byteOffset": 15852,
      "byteLength": 8664,
      "byteStride": 8,
      "target": 34962
    },
    {
      "buffer": 0,
      "byteOffset": 24516,
      "byteLength": 17328,
      "byteStride": 16,
      "target": 34962
    },
    {
      "buffer": 0,
      "byteOffset": 2856,
      "byteLength": 12996,
      "byteStride": 12,
      "target": 34962
    },
    {
      "buffer": 0,
      "byteOffset": 41844,
      "byteLength": 12996,
      "byteStride": 12,
      "target": 34962
    },
    {
      "buffer": 1,
      "byteOffset": 0,
      "byteLength": 1440,
      "target": 34963
    },
    {
      "buffer": 1,
      "byteOffset": 7872,
      "byteLength": 4288,
      "byteStride": 8,
      "target": 34962
    },
    {
      "buffer": 1,
      "byteOffset": 12160,
      "byteLength": 8576,
      "byteStride": 16,
      "target": 34962
    },
    {
      "buffer": 1,
      "byteOffset": 1440,
      "byteLength": 6432,
      "byteStride": 12,
      "target": 34962
    },
    {
      "buffer": 1,
      "byteOffset": 20736,
      "byteLength": 6432,
      "byteStride": 12,
      "target": 34962
    }
  ],
  "accessors": [
    {
      "bufferView": 0,
      "byteOffset": 0,
      "componentType": 5123,
      "count": 1428,
      "max": [
        1082
      ],
      "min": [
        0
      ],
      "type": "SCALAR"
    },
    {
      "bufferView": 1,
      "byteOffset": 0,
      "componentType": 5126,
      "count": 1083,
      "max": [
        1,
        1
      ],
      "min": [
        0,
        -7.450580596923828e-8
      ],
      "type": "VEC2"
    },
    {
      "bufferView": 2,
      "byteOffset": 0,
      "componentType": 5126,
      "count": 1083,
      "max": [
        1,
        1,
        1,
        1
      ],
      "min": [
        -1,
        -1,
        -1,
        -1
      ],
      "type": "VEC4"
    },
    {
      "bufferView": 3,
      "byteOffset": 0,
      "componentType": 5126,
      "count": 1083,
      "max": [
        583.6793823242188,
        325.4852294921875,
        466.8656921386719
      ],
      "min": [
        531.0855712890625,
        208.750244140625,
        414.27203369140625
      ],
      "type": "VEC3"
    },
    {
      "bufferView": 4,
      "byteOffset": 0,
      "componentType": 5126,
      "count": 1083,
      "max": [
        1,
        1,
        1
      ],
      "min": [
        -1,
        0,
        -1
      ],
      "type": "VEC3"
    },
    {
      "bufferView": 5,
      "byteOffset": 0,
      "componentType": 5123,
      "count": 720,
      "max": [
        535
      ],
      "min": [
        0
      ],
      "type": "SCALAR"
    },
    {
      "bufferView": 6,
      "byteOffset": 0,
      "componentType": 5126,
      "count": 536,
      "max": [
        0.65625,
        1
      ],
      "min": [
        0.3437499701976776,
        0.3125
      ],
      "type": "VEC2"
    },
    {
      "bufferView": 7,
      "byteOffset": 0,
      "componentType": 5126,
      "count": 536,
      "max": [
        1,
        0.9856801629066467,
        1,
        1
      ],
      "min": [
        -1,
        -0.9856802225112915,
        -1,
        -1
      ],
      "type": "VEC4"
    },
    {
      "bufferView": 8,
      "byteOffset": 0,
      "componentType": 5126,
      "count": 536,
      "max": [
        582.700927734375,
        231.1651153564453,
        466.2199401855469
      ],
      "min": [
        532.0641479492188,
        209.0053253173828,
        415.5831298828125
      ],
      "type": "VEC3"
    },
    {
      "bufferView": 9,
      "byteOffset": 0,
      "componentType": 5126,
      "count": 536,
      "max": [
        0.985681414604187,
        -0.16861356794834137,
        0.9856802821159363
      ],
      "min": [
        -0.9856798052787781,
        -0.959511399269104,
        -0.9856809973716736
      ],
      "type": "VEC3"
    }
  ],
  "meshes": [
    {
      "name": "lamps1_Material1",
      "primitives": [
        {
          "attributes": {
            "TEXCOORD_0": 1,
            "TANGENT": 2,
            "POSITION": 3,
            "NORMAL": 4
          },
          "indices": 0,
          "mode": 4,
          "material": 0
        }
      ]
    },
    {
      "name": "lamps1_Material0",
      "primitives": [
        {
          "attributes": {
            "TEXCOORD_0": 6,
            "TANGENT": 7,
            "POSITION": 8,
            "NORMAL": 9
          },
          "indices": 5,
          "mode": 4,
          "material": 1
        }
      ]
    }
  ],
  "materials": [
    {
      "name": "BLACK",
      "pbrMetallicRoughness": {
        "baseColorFactor": [
          0,
          0,
          0,
          1
        ],
        "roughnessFactor": 0.9935741934776307
      },
      "emissiveFactor": [
        0,
        0,
        0
      ]
    },
    {
      "name": "BULB",
      "pbrMetallicRoughness": {
        "baseColorFactor": [
          0.800000011920929,
          0.800000011920929,
          0.800000011920929,
          1
        ],
        "roughnessFactor": 0.98
      },
      "emissiveFactor": [
        1,
        1,
        1
      ]
    }
  ],
  "scenes": [
    {
      "name": "lamp",
      "nodes": [
        0,
        3,
        6
      ]
    }
  ],
  "scene": 0
}