{
  "asset": {
    "generator": "Amazon Sumerian",
    "version": "2.0"
  },
  "cameras": [
    {
      "name": "Default Camera",
      "type": "perspective",
      "perspective": {
        "aspectRatio": 1,
        "yfov": 0.7853981633974483,
        "zfar": 1000,
        "znear": 1
      }
    }
  ],
  "nodes": [
    {
      "name": "Default Camera",
      "camera": 0,
      "rotation": [
        -0.3020088438506518,
        0.0010547633048627277,
        0.0003341512103306434,
        0.9533044812930085
      ],
      "scale": [
        1,
        1,
        1
      ],
      "translation": [
        0.004006301733047249,
        1.2750928077828485,
        1.810463400880154
      ]
    },
    {
      "name": "Key - Directional",
      "extensions": {
        "KHR_lights_punctual": {
          "light": 0
        }
      },
      "rotation": [
        -0.0948595598902012,
        0.11955889871169392,
        -0.14019607206387738,
        0.9782905473396666
      ],
      "scale": [
        0.9999998569971704,
        0.9999998569971704,
        0.9999998569971704
      ],
      "translation": [
        3.840765953063965,
        5.725151062011719,
        6.723899841308594
      ]
    },
    {
      "name": "Rim - Directional",
      "extensions": {
        "KHR_lights_punctual": {
          "light": 1
        }
      },
      "rotation": [
        -0.007935453473895075,
        0.936498758480699,
        0.34801447925863915,
        0.042344139719820297
      ],
      "scale": [
        1.0000002646568553,
        1.0000002646568553,
        1.0000002646568553
      ],
      "translation": [
        4.528846740722656,
        9.009954452514648,
        -9.487277030944824
      ]
    },
    {
      "name": "Default  Dynamic Lights",
      "rotation": [
        0,
        0,
        0,
        1
      ],
      "scale": [
        1,
        1,
        1
      ],
      "translation": [
        0,
        0,
        0
      ],
      "children": [
        1,
        2
      ]
    },
    {
      "name": "default",
      "mesh": 0,
      "rotation": [
        0,
        -0.013856068393553658,
        0,
        0.999904000076344
      ],
      "scale": [
        1,
        1,
        1
      ],
      "translation": [
        -3.496244430541992,
        0,
        0
      ]
    },
    {
      "name": "B073GC43L7.obj_root",
      "rotation": [
        0,
        0,
        0,
        1
      ],
      "scale": [
        1,
        1,
        1
      ],
      "translation": [
        0,
        0,
        0
      ],
      "children": [
        4
      ]
    },
    {
      "name": "B073GC43L7.obj",
      "rotation": [
        0,
        0,
        0,
        1
      ],
      "scale": [
        0.01,
        0.01,
        0.01
      ],
      "translation": [
        0,
        0,
        0
      ],
      "children": [
        5
      ]
    }
  ],
  "extensions": {
    "KHR_lights_punctual": {
      "lights": [
        {
          "name": "Key - Directional",
          "color": [
            0.92477783203125,
            0.8875688601181507,
            0.856960791015625
          ],
          "intensity": 1,
          "type": "directional"
        },
        {
          "name": "Rim - Directional",
          "color": [
            1,
            1,
            1
          ],
          "intensity": 1,
          "type": "directional"
        }
      ]
    }
  },
  "extensionsUsed": [
    "KHR_lights_punctual"
  ],
  "buffers": [
    {
      "byteLength": 1716576,
      "uri": "4de9b8518af36887f74d1af87671e161beb9a450.bin"
    }
  ],
  "bufferViews": [
    {
      "buffer": 0,
      "byteOffset": 0,
      "byteLength": 101664,
      "target": 34963
    },
    {
      "buffer": 0,
      "byteOffset": 505392,
      "byteLength": 269152,
      "byteStride": 8,
      "target": 34962
    },
    {
      "buffer": 0,
      "byteOffset": 774544,
      "byteLength": 538304,
      "byteStride": 16,
      "target": 34962
    },
    {
      "buffer": 0,
      "byteOffset": 101664,
      "byteLength": 403728,
      "byteStride": 12,
      "target": 34962
    },
    {
      "buffer": 0,
      "byteOffset": 1312848,
      "byteLength": 403728,
      "byteStride": 12,
      "target": 34962
    }
  ],
  "accessors": [
    {
      "bufferView": 0,
      "byteOffset": 0,
      "componentType": 5123,
      "count": 50832,
      "max": [
        33643
      ],
      "min": [
        0
      ],
      "type": "SCALAR"
    },
    {
      "bufferView": 1,
      "byteOffset": 0,
      "componentType": 5126,
      "count": 33644,
      "max": [
        0.998216986656189,
        0.9984170198440552
      ],
      "min": [
        -0.9952459931373596,
        0.0040270001627504826
      ],
      "type": "VEC2"
    },
    {
      "bufferView": 2,
      "byteOffset": 0,
      "componentType": 5126,
      "count": 33644,
      "max": [
        1,
        1,
        1,
        1
      ],
      "min": [
        -1,
        -1,
        -1,
        -1
      ],
      "type": "VEC4"
    },
    {
      "bufferView": 3,
      "byteOffset": 0,
      "componentType": 5126,
      "count": 33644,
      "max": [
        33.1317024230957,
        80.61334228515625,
        37.494319915771484
      ],
      "min": [
        -33.1317024230957,
        -0.14818499982357025,
        -37.494319915771484
      ],
      "type": "VEC3"
    },
    {
      "bufferView": 4,
      "byteOffset": 0,
      "componentType": 5126,
      "count": 33644,
      "max": [
        1,
        1,
        1
      ],
      "min": [
        -1,
        -1,
        -1
      ],
      "type": "VEC3"
    }
  ],
  "meshes": [
    {
      "name": "2",
      "primitives": [
        {
          "attributes": {
            "TEXCOORD_0": 1,
            "TANGENT": 2,
            "POSITION": 3,
            "NORMAL": 4
          },
          "indices": 0,
          "mode": 4,
          "material": 0
        }
      ]
    }
  ],
  "images": [
    {
      "uri": "B073GC43L7_Base_Color_02.png"
    }
  ],
  "samplers": [
    {
      "name": "B073GC43L7_Base_Color_02.png",
      "magFilter": 9729,
      "minFilter": 9987,
      "wrapS": 10497,
      "wrapT": 10497
    }
  ],
  "textures": [
    {
      "name": "B073GC43L7_Base_Color_02.png",
      "source": 0,
      "sampler": 0
    }
  ],
  "materials": [
    {
      "name": "defaultMat",
      "pbrMetallicRoughness": {
        "baseColorFactor": [
          0.8,
          0.8,
          0.8,
          1
        ],
        "baseColorTexture": {
          "index": 0
        },
        "roughnessFactor": 0.995
      },
      "emissiveFactor": [
        0,
        0,
        0
      ]
    }
  ],
  "scenes": [
    {
      "name": "Chair",
      "nodes": [
        0,
        3,
        6
      ]
    }
  ],
  "scene": 0
}